<?xml version="1.0" ?><svg viewBox="0 0 25 25" xmlns="http://www.w3.org/2000/svg"><defs><style>.cls-1{fill:#ffbd1b;}.cls-2{fill:#0070d4;}</style></defs><title/><g data-name="Layer 9" id="Layer_9"><path class="cls-1" d="M12.5,23A7.51,7.51,0,0,1,5,15.5C5,11.61,8,9,12.5,9S20,11.61,20,15.5A7.51,7.51,0,0,1,12.5,23Zm0-13C9.26,10,6,11.7,6,15.5a6.5,6.5,0,0,0,13,0C19,11.7,15.74,10,12.5,10Z"/><path class="cls-1" d="M12.5,15C9.83,15,7,14.12,7,12.5S9.67,9,12.5,9,18,11,18,12.5,15.17,15,12.5,15Zm0-5C9.9,10,8,11.75,8,12.5S9.75,14,12.5,14s4.5-.89,4.5-1.5S15.1,10,12.5,10Z"/><path class="cls-2" d="M11.5,13a.5.5,0,0,1-.47-.34L9.1,6.9,6.34,6A.5.5,0,0,1,6.66,5l3,1a.5.5,0,0,1,.32.32l2,6a.5.5,0,0,1-.32.63Z"/><path class="cls-2" d="M13.5,13l-.16,0a.5.5,0,0,1-.32-.63l2-6A.5.5,0,0,1,15.34,6l3-1a.5.5,0,0,1,.32.95L15.9,6.9,14,12.66A.5.5,0,0,1,13.5,13Z"/><path class="cls-1" d="M10.5,20C8.1,20,7,17.67,7,15.5a.5.5,0,0,1,1,0c0,1.69.78,3.5,2.5,3.5a.5.5,0,0,1,0,1Z"/><path class="cls-2" d="M15.5,5h-6a.5.5,0,0,1-.28-.92l3-2a.5.5,0,0,1,.55,0l3,2A.5.5,0,0,1,15.5,5ZM11.15,4h2.7L12.5,3.1Z"/><rect class="cls-1" height="6" width="1" x="12" y="5"/></g></svg>